<svg width="16" height="16" viewBox="0 0 16 16" fill="none" xmlns="http://www.w3.org/2000/svg">
<path d="M7.99999 2.90909C7.8071 2.90909 7.62212 2.98571 7.48573 3.1221C7.34934 3.25849 7.27272 3.44348 7.27272 3.63636V3.64363C5.98981 3.97527 5.09235 5.22036 5.0909 6.54545C5.0909 6.54545 5.0909 10.1818 3.88363 10.6335C3.87199 10.6415 3.8669 10.656 3.85453 10.6647C3.80871 10.7006 3.76915 10.7439 3.73744 10.7927C3.72435 10.8124 3.70908 10.8276 3.6989 10.848C3.65916 10.9229 3.63772 11.0061 3.63635 11.0909C3.63635 11.3935 3.87999 11.6364 4.18181 11.6364H11.8182C12.1207 11.6364 12.3636 11.3935 12.3636 11.0909C12.3623 11.0061 12.3408 10.9229 12.3011 10.848C12.2909 10.8276 12.2756 10.8116 12.2633 10.7927C12.2313 10.7438 12.1915 10.7006 12.1454 10.6647C12.1338 10.656 12.1287 10.6415 12.1164 10.6335C10.9091 10.1825 10.9091 6.54545 10.9091 6.54545C10.9076 5.21963 10.0109 3.97454 8.72726 3.64363V3.63636C8.72726 3.44348 8.65064 3.25849 8.51425 3.1221C8.37786 2.98571 8.19287 2.90909 7.99999 2.90909V2.90909ZM6.59417 12.3636C6.67468 12.6754 6.85638 12.9517 7.1108 13.1491C7.36522 13.3466 7.67796 13.454 7.99999 13.4545C8.32239 13.4545 8.63564 13.3473 8.8905 13.1498C9.14536 12.9523 9.32739 12.6758 9.40799 12.3636H6.59417Z" fill="white"/>
</svg>
