<svg width="64" height="64" viewBox="0 0 64 64" fill="none" xmlns="http://www.w3.org/2000/svg">
<path d="M51.0004 4.00003H13.0001C10.2386 4.00003 8.00006 6.23862 8.00006 9.00007V55.0004C8.00006 57.7618 10.2386 60.0004 13.0001 60.0004H51.0004C53.7618 60.0004 56.0004 57.7618 56.0004 55.0004V9.00007C56.0004 6.23862 53.7618 4.00003 51.0004 4.00003Z" fill="#F4F4F4"/>
<path opacity="0.1" fill-rule="evenodd" clip-rule="evenodd" d="M56.0004 46.0003L42.0003 60.0004H51.0004C53.7704 60.0004 56.0004 57.7704 56.0004 55.0004V46.0003Z" fill="url(#paint0_linear)"/>
<path d="M23.625 21.375H25.875V23.625H23.625V29.25C23.625 29.8467 23.3879 30.419 22.966 30.841C22.544 31.2629 21.9717 31.5 21.375 31.5C21.9717 31.5 22.544 31.7371 22.966 32.159C23.3879 32.581 23.625 33.1533 23.625 33.75V39.375H25.875V41.625H23.625C22.4212 41.3213 21.375 40.6125 21.375 39.375V34.875C21.375 34.2783 21.1379 33.706 20.716 33.284C20.294 32.8621 19.7217 32.625 19.125 32.625H18V30.375H19.125C19.7217 30.375 20.294 30.1379 20.716 29.716C21.1379 29.294 21.375 28.7217 21.375 28.125V23.625C21.375 23.0283 21.6121 22.456 22.034 22.034C22.456 21.6121 23.0283 21.375 23.625 21.375ZM39.375 21.375C39.9717 21.375 40.544 21.6121 40.966 22.034C41.3879 22.456 41.625 23.0283 41.625 23.625V28.125C41.625 28.7217 41.8621 29.294 42.284 29.716C42.706 30.1379 43.2783 30.375 43.875 30.375H45V32.625H43.875C43.2783 32.625 42.706 32.8621 42.284 33.284C41.8621 33.706 41.625 34.2783 41.625 34.875V39.375C41.625 39.9717 41.3879 40.544 40.966 40.966C40.544 41.3879 39.9717 41.625 39.375 41.625H37.125V39.375H39.375V33.75C39.375 33.1533 39.6121 32.581 40.034 32.159C40.456 31.7371 41.0283 31.5 41.625 31.5C41.0283 31.5 40.456 31.2629 40.034 30.841C39.6121 30.419 39.375 29.8467 39.375 29.25V23.625H37.125V21.375H39.375ZM31.5 34.875C31.7984 34.875 32.0845 34.9935 32.2955 35.2045C32.5065 35.4155 32.625 35.7016 32.625 36C32.625 36.2984 32.5065 36.5845 32.2955 36.7955C32.0845 37.0065 31.7984 37.125 31.5 37.125C31.2016 37.125 30.9155 37.0065 30.7045 36.7955C30.4935 36.5845 30.375 36.2984 30.375 36C30.375 35.7016 30.4935 35.4155 30.7045 35.2045C30.9155 34.9935 31.2016 34.875 31.5 34.875ZM27 34.875C27.2984 34.875 27.5845 34.9935 27.7955 35.2045C28.0065 35.4155 28.125 35.7016 28.125 36C28.125 36.2984 28.0065 36.5845 27.7955 36.7955C27.5845 37.0065 27.2984 37.125 27 37.125C26.7016 37.125 26.4155 37.0065 26.2045 36.7955C25.9935 36.5845 25.875 36.2984 25.875 36C25.875 35.7016 25.9935 35.4155 26.2045 35.2045C26.4155 34.9935 26.7016 34.875 27 34.875ZM36 34.875C36.2984 34.875 36.5845 34.9935 36.7955 35.2045C37.0065 35.4155 37.125 35.7016 37.125 36C37.125 36.2984 37.0065 36.5845 36.7955 36.7955C36.5845 37.0065 36.2984 37.125 36 37.125C35.7016 37.125 35.4155 37.0065 35.2045 36.7955C34.9935 36.5845 34.875 36.2984 34.875 36C34.875 35.7016 34.9935 35.4155 35.2045 35.2045C35.4155 34.9935 35.7016 34.875 36 34.875Z" fill="#EAB305"/>
<defs>
<linearGradient id="paint0_linear" x1="46.9973" y1="50.9969" x2="51.9976" y2="55.9972" gradientUnits="userSpaceOnUse">
<stop/>
<stop offset="1" stop-opacity="0"/>
</linearGradient>
</defs>
</svg>
