<svg width="64" height="64" viewBox="0 0 64 64" fill="none" xmlns="http://www.w3.org/2000/svg">
<path d="M51.0004 4.00003H13.0001C10.2386 4.00003 8.00006 6.23862 8.00006 9.00007V55.0004C8.00006 57.7618 10.2386 60.0004 13.0001 60.0004H51.0004C53.7618 60.0004 56.0004 57.7618 56.0004 55.0004V9.00007C56.0004 6.23862 53.7618 4.00003 51.0004 4.00003Z" fill="#F4F4F4"/>
<path opacity="0.1" fill-rule="evenodd" clip-rule="evenodd" d="M56.0004 46.0003L42.0003 60.0004H51.0004C53.7704 60.0004 56.0004 57.7704 56.0004 55.0004V46.0003Z" fill="url(#paint0_linear)"/>
<path d="M46.8086 15.2402C46.6699 15.0872 46.4748 15 46.2696 15H17.7304C17.5252 15 17.3302 15.0872 17.1914 15.2402C17.0526 15.3932 16.9847 15.5987 17.0029 15.8049L19.574 44.9466C19.601 45.2511 19.8107 45.5076 20.1014 45.5919L31.7955 48.9719C31.8605 48.9904 31.9284 49 31.9956 49C32.0628 49 32.1308 48.9904 32.1958 48.9719L43.9001 45.5919C44.1908 45.5076 44.4004 45.2511 44.4275 44.9466L46.9971 15.8049C47.0154 15.5987 46.9467 15.3932 46.8086 15.2402ZM22.5045 34.9595L27.6175 36.3949V21.6522H30.5392V40.8696L22.5045 38.6145V34.9595ZM41.535 29.7826L40.7651 38.837L33.4609 40.8696V37.4688L38.3912 36.0977L38.5738 33.326L33.4609 34.2174V21.6522H42.226L41.974 24.6087H36.3826V30.5217L41.535 29.7826Z" fill="#EAB305"/>
<defs>
<linearGradient id="paint0_linear" x1="46.9973" y1="50.9969" x2="51.9976" y2="55.9972" gradientUnits="userSpaceOnUse">
<stop/>
<stop offset="1" stop-opacity="0"/>
</linearGradient>
</defs>
</svg>
