<svg width="24" height="24" viewBox="0 0 24 24" fill="none" xmlns="http://www.w3.org/2000/svg">
<path d="M12 4.36363C11.7107 4.36363 11.4332 4.47857 11.2286 4.68315C11.024 4.88774 10.9091 5.16521 10.9091 5.45454V5.46545C8.98474 5.96291 7.63856 7.83054 7.63638 9.81818C7.63638 9.81818 7.63638 15.2727 5.82547 15.9502C5.80801 15.9622 5.80038 15.984 5.78183 15.9971C5.7131 16.051 5.65375 16.1158 5.6062 16.1891C5.58656 16.2185 5.56365 16.2415 5.54838 16.272C5.48877 16.3843 5.45661 16.5092 5.45456 16.6364C5.45456 17.0902 5.82001 17.4545 6.27274 17.4545H17.7273C18.1811 17.4545 18.5455 17.0902 18.5455 16.6364C18.5434 16.5092 18.5113 16.3843 18.4516 16.272C18.4364 16.2415 18.4135 16.2175 18.3949 16.1891C18.347 16.1157 18.2873 16.0509 18.2182 15.9971C18.2007 15.984 18.1931 15.9622 18.1746 15.9502C16.3636 15.2738 16.3636 9.81818 16.3636 9.81818C16.3615 7.82945 15.0164 5.96181 13.0909 5.46545V5.45454C13.0909 5.16521 12.976 4.88774 12.7714 4.68315C12.5668 4.47857 12.2893 4.36363 12 4.36363V4.36363ZM9.89129 18.5455C10.012 19.0132 10.2846 19.4276 10.6662 19.7237C11.0479 20.0198 11.517 20.181 12 20.1818C12.4836 20.1817 12.9535 20.0209 13.3358 19.7247C13.7181 19.4285 13.9911 19.0137 14.112 18.5455H9.89129Z" fill="white"/>
</svg>
