<svg width="64" height="64" viewBox="0 0 64 64" fill="none" xmlns="http://www.w3.org/2000/svg">
<g clip-path="url(#clip0)">
<path d="M32 64.0001C49.6731 64.0001 64 49.6731 64 32C64 14.3269 49.6731 0 32 0C14.3269 0 0 14.3269 0 32C0 49.6731 14.3269 64.0001 32 64.0001Z" fill="#F9F9F9"/>
<path d="M27.3267 45C26.9453 45 26.6667 45.2772 26.6667 45.6116V53.6453L23.6761 53.9217H23.66C23.2787 53.9217 23 54.1989 23 54.5333V55.3884H40.6V54.5333C40.6 54.1989 40.3206 53.9217 39.94 53.9217H39.9224L36.9333 53.6453V45.6116C36.9333 45.2772 36.6547 45 36.2733 45H27.3267Z" fill="#C4C7CC"/>
<path d="M52.5333 17H11.4667C10.6566 17 10 17.6566 10 18.4667V44.8667C10 45.6767 10.6566 46.3333 11.4667 46.3333H52.5333C53.3434 46.3333 54 45.6767 54 44.8667V18.4667C54 17.6566 53.3434 17 52.5333 17Z" fill="#2F3337"/>
<path fill-rule="evenodd" clip-rule="evenodd" d="M12.2 19.2H51.8V44.1333H12.2V19.2Z" fill="#724FFC"/>
<path opacity="0.15" d="M48.9525 19.2C48.8467 23.9423 47.7507 28.6102 45.7348 32.904C43.7188 37.1978 40.8275 41.0227 37.2463 44.1333H51.8V19.2H48.9526H48.9525Z" fill="url(#paint0_linear)"/>
<path opacity="0.2" d="M56.0717 32.2417L45.8663 46.1932L45.865 46.1948C44.7137 47.7893 44.0123 49.174 43.5225 50.091C43.2785 50.5478 43.0787 50.8884 42.9535 51.0435C42.9144 51.0012 42.8604 50.9351 42.7442 50.8228C42.4708 50.5587 41.9964 50.2688 41.1387 50.0747H41.1384C39.2264 49.6424 37.4225 51.1141 37.025 52.9347C36.5276 54.7019 37.3426 56.8672 39.2604 57.4389C41.1439 58.1039 43.2817 57.0376 43.9437 55.1726C44.7669 53.3217 45.1048 51.2631 47.475 49.4187L49.5064 47.8383L56.3355 38.1508L56.3466 38.1332C57.173 36.7774 57.7004 34.8261 56.5621 33.0196L56.0717 32.2417ZM55.8936 34.6023C56.1434 35.6175 55.8074 36.6115 55.2823 37.4753L48.5914 46.9658L46.7073 48.4323C45.7534 49.1746 45.086 49.9692 44.5768 50.7588C44.5935 50.7275 44.6078 50.7119 44.6249 50.6797C45.1267 49.7401 45.7866 48.4382 46.8783 46.9264L55.8936 34.6023ZM44.3266 51.17C43.8834 51.9374 43.5716 52.6884 43.3116 53.3728C43.2767 52.9872 43.1539 52.6418 42.9643 52.3377C43.1394 52.3389 43.3148 52.3131 43.4532 52.2404C43.6581 52.1328 43.7976 51.9882 43.9223 51.8344C44.0658 51.6575 44.196 51.3975 44.3266 51.17V51.17ZM40.7856 52.3357C40.9284 52.3458 41.0686 52.3744 41.2019 52.4197C41.7352 52.6007 42.0978 52.989 42.0978 53.5821V53.6007L42.0988 53.6192C42.1309 54.1569 41.7951 54.7435 41.299 55.086C40.8028 55.4285 40.2499 55.5139 39.7599 55.2058L39.7387 55.1928L39.7169 55.1814C39.3267 54.9772 39.1274 54.5889 39.0981 54.1052C39.0688 53.6216 39.2529 53.0959 39.548 52.8002C39.9055 52.4418 40.3572 52.3053 40.7856 52.3357H40.7856ZM43.3464 53.5447L43.3478 53.5821C43.3478 53.5759 43.3449 53.5708 43.3448 53.5645C43.3445 53.5577 43.3469 53.5515 43.3465 53.5447H43.3464ZM39.0944 56.264C39.1012 56.2683 39.1088 56.2686 39.1156 56.2728C39.1238 56.2772 39.1291 56.2844 39.1374 56.2887L39.0944 56.264Z" fill="black"/>
<path d="M46.3717 46.4417C44.1288 49.5478 43.6483 51.8153 42.886 51.6005C42.2897 51.4319 42.5748 50.9215 41.0007 50.5653C39.489 50.2235 37.948 51.4677 37.6302 52.965C37.2063 54.4331 37.903 56.2755 39.4532 56.7274C40.9877 57.2788 42.8125 56.3725 43.3548 54.8445C44.1413 53.0972 44.541 50.7912 47.0912 48.8067L49.0488 47.2832L55.8125 37.6889C56.5684 36.4487 57.0202 34.8003 56.0332 33.2339L46.3717 46.4417ZM39.1053 52.2398C40.4087 50.9332 42.7225 51.7229 42.7225 53.4631C42.8182 55.0641 40.8755 56.527 39.427 55.6161C38.2076 54.9781 38.2128 53.1343 39.1054 52.2398L39.1053 52.2398Z" fill="white"/>
<path opacity="0.3" d="M49.8367 47.2767C52.086 50.3775 52.5723 52.6445 53.334 52.427C53.9297 52.2577 53.6433 51.748 55.2168 51.3886C56.7279 51.0435 58.2722 52.2838 58.5925 53.7806C59.0202 55.2474 58.3275 57.0917 56.778 57.5469C55.2455 58.1016 53.418 57.1999 52.8723 55.6726C52.082 53.9271 51.6764 51.6217 49.1223 49.6432L47.1613 48.1244L40.3762 38.5449C39.6177 37.3066 39.162 35.6589 40.1457 34.0904L49.8367 47.2767ZM57.116 53.0585C55.8094 51.7551 53.4975 52.55 53.5013 54.2903C53.4089 55.8912 55.3548 57.3494 56.8015 56.4354C58.0196 55.7948 58.0111 53.9511 57.116 53.0584L57.116 53.0585Z" fill="black"/>
<path d="M49.8367 46.5267C52.086 49.6275 52.5723 51.8945 53.334 51.677C53.9297 51.5077 53.6433 50.998 55.2168 50.6386C56.7279 50.2935 58.2722 51.5338 58.5925 53.0306C59.0202 54.4974 58.3275 56.3417 56.778 56.7969C55.2455 57.3516 53.418 56.4499 52.8723 54.9226C52.082 53.1771 51.6764 50.8717 49.1223 48.8932L47.1613 47.3744L40.3762 37.7949C39.6177 36.5566 39.162 34.9089 40.1457 33.3404L49.8367 46.5267ZM57.116 52.3085C55.8094 51.0051 53.4975 51.8 53.5013 53.5403C53.4089 55.1412 55.3548 56.5994 56.8015 55.6854C58.0196 55.0448 58.0111 53.2011 57.116 52.3084L57.116 52.3085Z" fill="#E6E6E6"/>
</g>
<defs>
<linearGradient id="paint0_linear" x1="37.2463" y1="31.6667" x2="51.8" y2="31.6667" gradientUnits="userSpaceOnUse">
<stop/>
<stop offset="1" stop-opacity="0"/>
</linearGradient>
<clipPath id="clip0">
<rect width="64" height="64" fill="white"/>
</clipPath>
</defs>
</svg>
