<svg width="64" height="64" viewBox="0 0 64 64" fill="none" xmlns="http://www.w3.org/2000/svg">
<path d="M32 59C46.9117 59 59 46.9117 59 32C59 17.0883 46.9117 5 32 5C17.0883 5 5 17.0883 5 32C5 46.9117 17.0883 59 32 59Z" fill="url(#paint0_linear)"/>
<path d="M27.3077 21C26.8571 21.0017 23.1287 21.098 19.1955 23.7469C19.1955 23.7469 15 30.5872 15 39.0121C15 39.0121 17.4473 42.8151 23.8858 43C23.8858 43 24.9638 41.838 25.8378 40.8343C22.1377 39.8308 20.7392 37.7444 20.7392 37.7444C20.7392 37.7444 21.0306 37.9292 21.555 38.1933C21.5842 38.1933 21.6132 38.2245 21.6715 38.2478C21.7589 38.3022 21.8463 38.327 21.9337 38.3798C22.6621 38.7494 23.3905 39.0399 24.0606 39.2778C25.2551 39.7274 26.6828 40.1227 28.3434 40.4132C30.5286 40.7828 33.0924 40.9148 35.8894 40.4442C37.2588 40.2066 38.6574 39.8635 40.1141 39.3088C41.1339 38.9656 42.2701 38.4636 43.4646 37.7506C43.4646 37.7506 42.0079 39.8898 38.1912 40.867C39.0653 41.8442 40.1142 42.9796 40.1142 42.9796C46.5531 42.7948 49 38.9916 49 39.018C49 30.5929 44.8045 23.7529 44.8045 23.7529C40.6382 20.9271 36.6466 21.0064 36.6466 21.0064L36.2388 21.4289C41.1918 22.7757 43.4934 24.7565 43.4934 24.7565C40.4633 23.2776 37.4916 22.538 34.7241 22.2475C32.6264 22.0363 30.616 22.089 28.8388 22.3018C28.664 22.3018 28.5183 22.333 28.3435 22.3563C27.3238 22.4619 24.8473 22.7786 21.7299 24.02C20.6519 24.4424 20.0109 24.7594 20.0109 24.7594C20.0109 24.7594 22.4 22.6729 27.6443 21.3261L27.3529 21.0092C27.3529 21.0092 27.3375 21.0089 27.3074 21.009L27.3077 21ZM26.5666 30.7453C28.2273 30.7453 29.5676 32.0394 29.5384 33.6504C29.5384 35.2614 28.2273 36.5554 26.5666 36.5554C24.935 36.5554 23.5948 35.2614 23.5948 33.6504C23.5948 32.0394 24.9059 30.7453 26.5666 30.7453ZM37.2009 30.7453C38.8325 30.7453 40.1728 32.0394 40.1728 33.6504C40.1728 35.2614 38.8617 36.5554 37.2009 36.5554C35.5693 36.5554 34.2291 35.2614 34.2291 33.6504C34.2291 32.0394 35.5402 30.7453 37.2009 30.7453Z" fill="white"/>
<defs>
<linearGradient id="paint0_linear" x1="14" y1="11.5" x2="41.5" y2="56" gradientUnits="userSpaceOnUse">
<stop stop-color="#4F74FC"/>
<stop offset="0.583333" stop-color="#772EF3"/>
<stop offset="0.651042" stop-color="#7B32F5"/>
<stop offset="1" stop-color="#8B46FF"/>
</linearGradient>
</defs>
</svg>
