<svg width="64" height="64" viewBox="0 0 64 64" fill="none" xmlns="http://www.w3.org/2000/svg">
<path d="M31.9998 57C45.8069 57 56.9998 45.8071 56.9998 32C56.9998 18.1929 45.8069 7 31.9998 7C18.1926 7 6.99976 18.1929 6.99976 32C6.99976 45.8071 18.1926 57 31.9998 57Z" fill="#363949"/>
<path d="M19.3984 14C16.5011 16.0246 14.1342 18.7176 12.4983 21.8508C10.8623 24.9841 10.0054 28.4654 10 32C10 37.8348 12.3179 43.4305 16.4437 47.5564C18.4865 49.5992 20.9118 51.2197 23.581 52.3253C26.2501 53.431 29.1109 54 32 54C37.8348 54 43.4305 51.6822 47.5564 47.5564C51.6822 43.4305 54 37.8348 54 32C53.9977 28.4678 53.145 24.988 51.5138 21.855C49.8827 18.7219 47.5212 16.0276 44.6289 14H19.3984Z" fill="#7E82A0"/>
<path opacity="0.15" d="M31.9833 7C26.5784 7.01981 21.3239 8.77324 17 12H47C42.6669 8.76645 37.3997 7.01265 31.9833 7Z" fill="url(#paint0_linear)"/>
<path d="M31.998 16C30.894 16.0026 30.5567 17.0431 29.998 18.002L28.8339 19.998L7.84767 20C5.98537 23.7267 5.01072 27.8338 5 31.9999C5 39.1608 7.84463 46.0284 12.9081 51.0919C15.4153 53.599 18.3918 55.5879 21.6675 56.9447C24.9433 58.3016 28.4543 59 32 59C39.1608 59 46.0284 56.1554 51.0919 51.0919C56.1554 46.0284 59 39.1608 59 31.9999C58.9885 26.2387 57.1345 20.6322 53.7089 16H32.0019L31.998 16Z" fill="#363949"/>
<path d="M30.214 18.1279L30.214 18.1278C30.3094 17.9641 30.4004 17.7946 30.4872 17.6329C30.5291 17.5546 30.5701 17.4782 30.6102 17.4052C30.7364 17.1751 30.8579 16.969 30.9918 16.7947C31.2523 16.4556 31.5464 16.2511 31.9986 16.25L32.0003 16.25H32.0019H53.5825C56.9286 20.8196 58.7387 26.3345 58.75 32.0004C58.7499 39.0948 55.9316 45.8986 50.9151 50.9151C45.8985 55.9317 39.0945 58.75 32 58.75C28.4871 58.75 25.0087 58.0581 21.7632 56.7138C18.5178 55.3695 15.5689 53.3991 13.0849 50.9151C8.06837 45.8985 5.25008 39.0947 5.25 32.0002C5.26054 27.9243 6.20237 23.9053 8.00272 20.25L28.834 20.248L28.9776 20.248L29.0499 20.124L30.214 18.1279Z" stroke="#292B34" stroke-opacity="0.55" stroke-width="0.5"/>
<path opacity="0.25" d="M49.0653 18H36.9347C36.4185 18 36 18.2239 36 18.5C36 18.7761 36.4185 19 36.9347 19H49.0653C49.5815 19 50 18.7761 50 18.5C50 18.2239 49.5815 18 49.0653 18Z" fill="black"/>
<path opacity="0.15" d="M59 32L33 59C39.8956 59 46.5088 56.1554 51.3848 51.0919C56.2607 46.0284 59 39.1608 59 32Z" fill="url(#paint1_linear)"/>
<defs>
<linearGradient id="paint0_linear" x1="31.9835" y1="13.0002" x2="31.9835" y2="9.00023" gradientUnits="userSpaceOnUse">
<stop/>
<stop offset="1" stop-opacity="0"/>
</linearGradient>
<linearGradient id="paint1_linear" x1="31.0741" y1="44" x2="57.0741" y2="44" gradientUnits="userSpaceOnUse">
<stop/>
<stop offset="1" stop-opacity="0"/>
</linearGradient>
</defs>
</svg>
