<svg width="64" height="64" viewBox="0 0 64 64" fill="none" xmlns="http://www.w3.org/2000/svg">
<path d="M32 60C46.9117 60 59 47.9117 59 33C59 18.0883 46.9117 6 32 6C17.0883 6 5 18.0883 5 33C5 47.9117 17.0883 60 32 60Z" fill="#F9F9F9"/>
<path d="M28.6468 18.763C27.2812 21.511 26.7431 28.0496 23.3345 32.2372C19.9258 36.4247 14.884 35.1676 15.6474 36.5026C19.889 42.7866 29.4653 46.6328 36.6709 46.1778C43.3906 45.7534 47.9713 42.5896 50.0126 37.2495C51.4668 32.7079 53.4627 18.7797 51.3629 21.2409C50.1014 22.2335 48.1571 24.4689 45.5201 25.8451C43.5431 26.8768 40.7843 26.8593 38.1933 26.7319C32.9294 26.473 32.6126 25.7649 31.6211 23.7352C30.9111 22.2817 29.1741 17.7542 28.6468 18.763Z" fill="#E6E2E2"/>
<path d="M36.2432 36.2555C37.4241 38.0002 39.7957 38.4572 41.5404 37.2763C43.285 36.0954 43.742 33.7237 42.5611 31.9791C41.3802 30.2344 39.0085 29.7774 37.2639 30.9583C35.5192 32.1392 35.0622 34.5108 36.2432 36.2555Z" fill="#E6E2E2"/>
<path d="M37.587 36.2181C38.5445 37.6327 40.4674 38.0033 41.8819 37.0458C43.2965 36.0883 43.6671 34.1653 42.7095 32.7507C41.752 31.3361 39.8291 30.9656 38.4145 31.9231C36.9999 32.8806 36.6294 34.8035 37.587 36.2181Z" fill="#E6E2E2"/>
<path d="M27.5818 34.4326C28.7627 36.1773 31.1344 36.6343 32.879 35.4534C34.6236 34.2725 35.0806 31.9009 33.8997 30.1562C32.7188 28.4115 30.3471 27.9545 28.6025 29.1354C26.8579 30.3163 26.4009 32.688 27.5818 34.4326Z" fill="#E6E2E2"/>
<path d="M28.9253 34.3953C29.8828 35.8099 31.8057 36.1804 33.2203 35.223C34.6349 34.2655 35.0054 32.3425 34.0479 30.9279C33.0904 29.5133 31.1674 29.1428 29.7529 30.1003C28.3383 31.0578 27.9678 32.9807 28.9253 34.3953Z" fill="#E6E2E2"/>
<path d="M17.7671 38.6746C18.8687 37.6644 18.9161 35.9236 17.8732 34.7864C16.8303 33.6492 15.0919 33.5462 13.9904 34.5564C12.8888 35.5666 12.8413 37.3074 13.8842 38.4446C14.9272 39.5819 16.6656 39.6848 17.7671 38.6746Z" fill="#E6E2E2"/>
<path d="M36.221 42.8691C36.221 42.8691 35.1545 43.8568 33.989 44.2685L45.5094 47.1751C46.0992 47.3137 46.5831 46.9515 46.7216 46.3615C46.8601 45.7717 46.4965 45.2877 45.9066 45.1493L36.221 42.8691Z" fill="#E6E2E2"/>
<path d="M26.2722 43.9451C28.2404 44.9439 30.3658 45.5794 32.9701 44.7504C35.062 44.0816 37.4838 42.3372 38.6551 40.8452C37.2717 41.8953 35.5627 42.7643 33.723 43.3533C31.1227 44.1827 28.4433 44.3954 26.2722 43.9451Z" fill="#E6E2E2"/>
<path d="M52.9386 48.5043C52.2224 49.1939 49.3306 49.2616 48.1269 49.0415C46.9033 48.8177 45.6875 48.0302 45.6875 46.893C45.6875 45.7559 46.7436 45.0202 47.9926 45.1026C49.5055 45.2025 52.3119 47.412 52.9386 48.5043Z" fill="#E6E2E2"/>
<path d="M49.9091 46.2896C49.3588 46.7719 47.7464 47.4221 48.365 48.2183C48.6207 48.5148 48.0816 49.0653 48.5508 49.1691C49.9044 49.3113 52.2951 49.124 52.9387 48.5043C52.5315 47.7944 50.6208 45.5627 49.9091 46.2896Z" fill="#E6E2E2"/>
<path d="M27.651 17.1452C26.2853 19.8932 25.7473 26.4318 22.3386 30.6193C18.93 34.8069 13.8881 33.5497 14.6515 34.8848C18.8931 41.1688 28.4694 45.015 35.675 44.5599C42.3947 44.1355 46.9755 40.9718 49.0168 35.6316C50.471 31.09 52.4669 17.1619 50.3671 19.6231C49.1056 20.6157 47.1613 22.8511 44.5242 24.2272C42.5472 25.2589 39.7885 25.2415 37.1975 25.114C31.9335 24.8551 31.6167 24.1471 30.6252 22.1173C29.9153 20.6639 28.1783 16.1364 27.651 17.1452Z" fill="#FFCCAA"/>
<path d="M35.2473 34.6376C36.4282 36.3823 38.7999 36.8393 40.5445 35.6584C42.2892 34.4775 42.7462 32.1059 41.5653 30.3612C40.3843 28.6166 38.0127 28.1595 36.268 29.3404C34.5234 30.5213 34.0664 32.893 35.2473 34.6376Z" fill="white"/>
<path d="M36.5911 34.6002C37.5486 36.0148 39.4715 36.3854 40.8861 35.4279C42.3006 34.4705 42.6712 32.5475 41.7137 31.1329C40.7562 29.7183 38.8332 29.3478 37.4186 30.3052C36.0041 31.2627 35.6336 33.1856 36.5911 34.6002Z" fill="#666666"/>
<path d="M26.5859 32.8149C27.7669 34.5595 30.1385 35.0165 31.8832 33.8356C33.6278 32.6548 34.0848 30.2831 32.9039 28.5384C31.723 26.7938 29.3513 26.3368 27.6067 27.5177C25.862 28.6986 25.405 31.0702 26.5859 32.8149Z" fill="white"/>
<path d="M27.9297 32.7775C28.8872 34.1921 30.8101 34.5626 32.2247 33.6052C33.6393 32.6477 34.0098 30.7247 33.0523 29.3101C32.0948 27.8955 30.1718 27.525 28.7573 28.4825C27.3427 29.4399 26.9722 31.3629 27.9297 32.7775Z" fill="#666666"/>
<path d="M16.7713 37.0569C17.8728 36.0467 17.9203 34.3059 16.8774 33.1686C15.8344 32.0314 14.096 31.9284 12.9945 32.9386C11.893 33.9488 11.8455 35.6897 12.8884 36.8269C13.9313 37.9641 15.6698 38.0671 16.7713 37.0569Z" fill="#666666"/>
<path d="M35.2252 41.2512C35.2252 41.2512 34.1586 42.239 32.9932 42.6506L44.5135 45.5572C45.1034 45.6958 45.5872 45.3337 45.7257 44.7437C45.8642 44.1538 45.5007 43.6699 44.9108 43.5314L35.2252 41.2512Z" fill="#737373"/>
<path d="M25.2764 42.3273C27.2446 43.3262 29.37 43.9617 31.9743 43.1326C34.0661 42.4638 36.4879 40.7194 37.6593 39.2274C36.2759 40.2775 34.5669 41.1466 32.7271 41.7356C30.1268 42.565 27.4474 42.7777 25.2764 42.3273Z" fill="#666666"/>
<path d="M51.9427 46.8865C51.2266 47.576 48.3347 47.6438 47.1311 47.4237C45.9074 47.1998 44.6917 46.4123 44.6917 45.2752C44.6917 44.1381 45.7477 43.4023 46.9968 43.4848C48.5097 43.5847 51.3161 45.7942 51.9427 46.8865Z" fill="white"/>
<path d="M48.9132 44.6718C48.363 45.1541 46.7505 45.8044 47.3691 46.6005C47.6248 46.8971 47.0858 47.4475 47.555 47.5513C48.9086 47.6935 51.2993 47.5062 51.9428 46.8865C51.5356 46.1766 49.6249 43.945 48.9132 44.6718Z" fill="#757575"/>
</svg>
