<svg width="64" height="64" viewBox="0 0 64 64" fill="none" xmlns="http://www.w3.org/2000/svg">
<path d="M32 58.9754C46.9117 58.9754 59 46.8871 59 31.9754C59 17.0638 46.9117 4.97546 32 4.97546C17.0883 4.97546 5.00003 17.0638 5.00003 31.9754C5.00003 46.8871 17.0883 58.9754 32 58.9754Z" fill="#F9F9F9"/>
<path d="M31.9955 14.8962C22.2709 14.8962 14.3867 22.78 14.3867 32.5049C14.3902 39.9757 19.1176 46.6271 26.1726 49.1042C26.8018 49.0793 27.3031 48.5748 27.3031 47.9397V45.4216H26.1292C24.3918 45.4216 22.3209 44.9603 21.6787 43.0738C20.8229 40.5581 18.38 39.943 19.0855 39.5521C19.2335 39.4699 19.386 39.4194 19.5422 39.3959C19.6784 39.3748 19.8181 39.3759 19.9577 39.3936C20.9344 39.5157 21.9616 40.4971 22.6085 41.3129C23.7636 42.7709 24.4046 43.0738 25.6536 43.0738C26.8393 43.0738 27.3041 42.7803 27.3041 42.7803C27.3041 41.6592 27.816 40.7987 28.6083 40.2446C24.1087 39.5403 20.8477 37.2511 20.8477 32.5085C20.8477 30.2347 21.4769 28.4046 22.5487 26.9782C22.0674 25.323 22.1202 23.6431 22.6086 21.9434C24.2556 21.9434 26.1033 22.8391 27.2794 23.8006C28.7151 23.3463 30.3105 23.1174 31.9986 23.1174C33.6832 23.1174 35.282 23.3451 36.7295 23.7959C37.9034 22.8368 39.7488 21.9435 41.3936 21.9435C41.8737 23.6139 41.9265 25.2656 41.4711 26.894C42.6015 28.332 43.2707 30.1891 43.2707 32.509C43.2707 37.2516 39.9297 39.5443 35.3947 40.2473C36.186 40.8014 36.6966 41.6607 36.6966 42.7806V47.9402C36.6966 48.5752 37.1979 49.08 37.8271 49.1047C44.8825 46.6324 49.6013 39.9811 49.613 32.5054C49.6179 22.7809 41.7292 14.8967 32.0042 14.8967L31.9955 14.8962Z" fill="#333333"/>
</svg>
