<svg width="64" height="64" viewBox="0 0 64 64" fill="none" xmlns="http://www.w3.org/2000/svg">
<path opacity="0.99" d="M60 33C60 47.9117 47.9117 60 33 60C18.0883 60 6 47.9117 6 33C6 18.0883 18.0883 6 33 6C47.9117 6 60 18.0883 60 33Z" fill="black" fill-opacity="0.97" stroke="url(#paint0_linear)" stroke-width="2"/>
<path fill-rule="evenodd" clip-rule="evenodd" d="M21.1988 25.0002C20.6882 25.0082 20.2375 25.3389 20.0775 25.8242C19.9175 26.3095 20.0815 26.8429 20.4882 27.1535L28.4415 33.4509L20.4882 39.7469C20.1348 40.0082 19.9522 40.4402 20.0108 40.8749C20.0695 41.3095 20.3615 41.6775 20.7708 41.8349C21.1815 41.9909 21.6442 41.9122 21.9775 41.6282L31.1215 34.3909C31.4095 34.1629 31.5775 33.8162 31.5775 33.4495C31.5775 33.0829 31.4095 32.7349 31.1215 32.5082L21.9775 25.2709C21.7588 25.0909 21.4828 24.9949 21.1988 25.0002ZM33.0428 39.5135C32.3802 39.5135 31.8428 40.0509 31.8428 40.7135C31.8428 41.3762 32.3802 41.9135 33.0428 41.9135H44.0895C44.7535 41.9135 45.2908 41.3762 45.2908 40.7135C45.2908 40.0509 44.7535 39.5135 44.0895 39.5135H33.0428Z" fill="white"/>
<defs>
<linearGradient id="paint0_linear" x1="33" y1="5" x2="33" y2="61" gradientUnits="userSpaceOnUse">
<stop stop-color="#F748B1"/>
<stop offset="0.875" stop-color="#FBB74A"/>
</linearGradient>
</defs>
</svg>
