<svg width="64" height="64" viewBox="0 0 64 64" fill="none" xmlns="http://www.w3.org/2000/svg">
<path d="M32 59C46.9117 59 59 46.9117 59 32C59 17.0883 46.9117 5 32 5C17.0883 5 5 17.0883 5 32C5 46.9117 17.0883 59 32 59Z" fill="#F8F8F2"/>
<g clip-path="url(#clip0)">
<path d="M31.8749 12.1087L32.9424 14.1137C33.1824 14.4837 33.4424 14.8112 33.7487 15.1162C34.6425 16.01 35.4912 16.9462 36.2537 17.9487C38.0625 20.3237 39.2825 22.9612 40.1537 25.8137C40.6762 27.5562 40.96 29.3437 40.9812 31.1512C41.0687 36.555 39.2162 41.195 35.4812 45.0512C34.8712 45.6612 34.2187 46.2262 33.5187 46.7287C33.1487 46.7287 32.9737 46.445 32.8212 46.1837C32.5374 45.705 32.3637 45.1587 32.2762 44.615C32.1449 43.9612 32.0587 43.3075 32.1012 42.6325V42.3275C32.0712 42.2625 31.7449 12.2625 31.8749 12.1087Z" fill="#599636"/>
<path d="M31.875 12.0425C31.8312 11.955 31.7875 12.0213 31.7437 12.0638C31.765 12.5013 31.6125 12.8913 31.3737 13.2638C31.1112 13.6338 30.7637 13.9175 30.415 14.2225C28.4775 15.9 26.9525 17.9262 25.7312 20.1925C24.1062 23.2425 23.2687 26.5113 23.0312 29.9525C22.9225 31.1938 23.4237 35.5738 23.815 36.8375C24.8825 40.1925 26.8 43.0037 29.2837 45.4437C29.8937 46.0312 30.5462 46.5762 31.2212 47.1C31.4175 47.1 31.4387 46.925 31.4837 46.795C31.5697 46.5168 31.6353 46.2327 31.68 45.945L32.1175 42.6775L31.875 12.0425Z" fill="#6CAC48"/>
<path d="M32.9427 48.0562C32.9864 47.5562 33.2264 47.1412 33.4877 46.7275C33.2252 46.6187 33.0302 46.4025 32.8777 46.1612C32.7464 45.9437 32.6377 45.6825 32.5527 45.4425C32.2477 44.5275 32.1827 43.5675 32.0952 42.6325V42.0662C31.9864 42.1537 31.9639 42.8937 31.9639 43.0037C31.9003 43.992 31.7692 44.9747 31.5714 45.945C31.5064 46.3375 31.4627 46.7287 31.2214 47.0775C31.2214 47.1212 31.2214 47.165 31.2427 47.23C31.6352 48.385 31.7427 49.5612 31.8089 50.76V51.1975C31.8089 51.72 31.7877 51.61 32.2214 51.785C32.3964 51.85 32.5914 51.8725 32.7664 52.0025C32.8977 52.0025 32.9189 51.8937 32.9189 51.8062L32.8539 51.0875V49.0825C32.8327 48.7325 32.8977 48.385 32.9414 48.0575L32.9427 48.0562Z" fill="#C2BFBF"/>
</g>
<defs>
<clipPath id="clip0">
<rect width="40" height="40" fill="white" transform="translate(12 12)"/>
</clipPath>
</defs>
</svg>
