<svg width="64" height="64" viewBox="0 0 64 64" fill="none" xmlns="http://www.w3.org/2000/svg">
<g clip-path="url(#clip0)">
<path d="M32 64.0001C49.6731 64.0001 64 49.6731 64 32C64 14.3269 49.6731 0 32 0C14.3269 0 0 14.3269 0 32C0 49.6731 14.3269 64.0001 32 64.0001Z" fill="#F9F9F9"/>
<path d="M27.3267 45C26.9453 45 26.6667 45.2772 26.6667 45.6116V53.6453L23.6761 53.9217H23.66C23.2787 53.9217 23 54.1989 23 54.5333V55.3884H40.6V54.5333C40.6 54.1989 40.3206 53.9217 39.94 53.9217H39.9224L36.9333 53.6453V45.6116C36.9333 45.2772 36.6547 45 36.2733 45H27.3267Z" fill="#C4C7CC"/>
<path d="M52.5333 17H11.4667C10.6566 17 10 17.6566 10 18.4667V44.8667C10 45.6767 10.6566 46.3333 11.4667 46.3333H52.5333C53.3434 46.3333 54 45.6767 54 44.8667V18.4667C54 17.6566 53.3434 17 52.5333 17Z" fill="#2F3337"/>
<path fill-rule="evenodd" clip-rule="evenodd" d="M12.2 19.2H51.8V44.1333H12.2V19.2Z" fill="#724FFC"/>
<path opacity="0.15" d="M48.9525 19.2C48.8467 23.9423 47.7507 28.6102 45.7348 32.904C43.7188 37.1978 40.8275 41.0227 37.2463 44.1333H51.8V19.2H48.9526H48.9525Z" fill="url(#paint0_linear)"/>
</g>
<defs>
<linearGradient id="paint0_linear" x1="37.2463" y1="31.6667" x2="51.8" y2="31.6667" gradientUnits="userSpaceOnUse">
<stop/>
<stop offset="1" stop-opacity="0"/>
</linearGradient>
<clipPath id="clip0">
<rect width="64" height="64" fill="white"/>
</clipPath>
</defs>
</svg>
