<svg width="64" height="64" viewBox="0 0 64 64" fill="none" xmlns="http://www.w3.org/2000/svg">
<path d="M31.9951 58.66C46.7217 58.66 58.6601 46.7217 58.6601 31.995C58.6601 17.2683 46.7217 5.33 31.9951 5.33C17.2684 5.33 5.33008 17.2683 5.33008 31.995C5.33008 46.7217 17.2684 58.66 31.9951 58.66Z" fill="white"/>
<path d="M32.3333 5.33331C35.879 5.33331 39.3899 6.03169 42.6658 7.38856C45.9415 8.74545 48.918 10.7343 51.4252 13.2414C53.9324 15.7486 55.9211 18.725 57.2781 22.0009C58.6349 25.2766 59.3332 28.7877 59.3332 32.3334C59.3332 39.4942 56.4886 46.3618 51.4252 51.4253C46.3617 56.4887 39.4941 59.3333 32.3333 59.3333C19.9133 59.3333 9.51826 51.0173 6.30525 39.7044L16.6462 43.9703C17.3483 47.4533 20.4532 50.0993 24.1523 50.0993C28.3643 50.0993 31.7932 46.6704 31.7932 42.4584V42.1073L40.9733 35.5463H41.1892C46.8053 35.5463 51.3683 30.9833 51.3683 25.3673C51.3683 19.7513 46.8053 15.1883 41.1892 15.1883C35.5733 15.1883 30.9832 19.7513 30.9832 25.3673V25.5023L24.5842 34.8444L24.1523 34.8173C22.5592 34.8173 21.0743 35.3033 19.8593 36.1404L5.33325 30.1733C6.49426 16.2683 18.1042 5.33331 32.3333 5.33331ZM22.2893 46.2923C24.4493 47.1833 26.9332 46.1844 27.8242 44.0243C28.7152 41.8643 27.6893 39.4073 25.5833 38.5163L22.1273 37.0853C23.4502 36.5993 24.9353 36.5723 26.3393 37.1663C27.7703 37.7333 28.8772 38.8403 29.4442 40.2714C30.0383 41.6753 30.0383 43.2413 29.4442 44.6454C28.2833 47.5614 24.8543 48.9653 21.9383 47.7503C20.5883 47.1833 19.5622 46.1573 18.9952 44.9423L22.2893 46.2923ZM47.9932 25.3673C47.9932 29.1203 44.9423 32.1714 41.1892 32.1714C37.4632 32.1714 34.4123 29.1203 34.4123 25.3673C34.4087 24.4763 34.5816 23.5935 34.9208 22.7697C35.2602 21.9458 35.7592 21.1974 36.3893 20.5673C37.0193 19.9373 37.7678 19.4382 38.5917 19.099C39.4154 18.7596 40.2983 18.5867 41.1892 18.5903C44.9423 18.5903 47.9932 21.6413 47.9932 25.3673ZM36.1133 25.3673C36.1133 28.1753 38.3813 30.4704 41.2163 30.4704C44.0242 30.4704 46.2922 28.1753 46.2922 25.3673C46.2922 22.5593 44.0242 20.2643 41.2163 20.2643C38.3813 20.2643 36.1133 22.5593 36.1133 25.3673Z" fill="#363949"/>
</svg>
