<?xml version="1.0" encoding="UTF-8" standalone="no"?>
<!-- Generator: Gravit.io -->
<svg xmlns="http://www.w3.org/2000/svg" xmlns:xlink="http://www.w3.org/1999/xlink" style="isolation:isolate" viewBox="0 0 48 48" width="48pt" height="48pt">
	<g style="opacity:0.98999999;">
		<g opacity="0.98999999">
			<ellipse vector-effect="non-scaling-stroke" cx="23.935830505651193" cy="24.468578591051727" rx="23.267657764505223" ry="23.26766088568698" fill="#72787e" fill-opacity="0.7"/>
		</g>
	</g>
	<path d=" M 15.351 18.126 C 14.968 18.132 14.63 18.38 14.51 18.744 C 14.39 19.108 14.513 19.508 14.818 19.741 L 20.783 24.464 L 14.818 29.186 C 14.553 29.382 14.416 29.706 14.46 30.032 C 14.504 30.358 14.723 30.634 15.03 30.752 C 15.338 30.869 15.685 30.81 15.935 30.597 L 22.793 25.169 C 23.009 24.998 23.135 24.738 23.135 24.463 C 23.135 24.188 23.009 23.927 22.793 23.757 L 15.935 18.329 C 15.771 18.194 15.564 18.122 15.351 18.126 Z  M 24.234 29.011 C 23.737 29.011 23.334 29.414 23.334 29.911 C 23.334 30.408 23.737 30.811 24.234 30.811 L 32.519 30.811 C 33.017 30.811 33.42 30.408 33.42 29.911 C 33.42 29.414 33.017 29.011 32.519 29.011 L 24.234 29.011 Z " fill-rule="evenodd" fill="rgb(255,255,255)"/>
</svg>
