<svg width="64" height="64" viewBox="0 0 64 64" fill="none" xmlns="http://www.w3.org/2000/svg">
<g clip-path="url(#clip0)">
<path d="M31.9998 61C48.5684 61 61.9998 47.7924 61.9998 31.5C61.9998 15.2076 48.5684 2 31.9998 2C15.4313 2 1.99982 15.2076 1.99982 31.5C1.99982 47.7924 15.4313 61 31.9998 61Z" fill="#363949"/>
<path d="M17.1072 10.0002C13.6831 12.4297 10.8859 15.6613 8.95249 19.4212C7.01907 23.1811 6.00633 27.3586 6 31.6002C6 38.6019 8.73928 45.3168 13.6152 50.2678C16.0295 52.7193 18.8958 54.6639 22.0502 55.9906C25.2047 57.3173 28.5856 58.0002 32 58.0002C38.8956 58.0002 45.5088 55.2188 50.3848 50.2678C55.2607 45.3168 58 38.6019 58 31.6002C57.9973 27.3615 56.9895 23.1858 55.0618 19.4261C53.1341 15.6665 50.3432 12.4334 46.9251 10.0002H17.1072Z" fill="#7E82A0"/>
<path opacity="0.15" d="M31.9799 2.00018C25.494 2.02395 19.1887 4.12806 14 8.00018H50C44.8003 4.11992 38.4796 2.01536 31.9799 2.00018V2.00018Z" fill="url(#paint0_linear)"/>
<path d="M31.9977 13.0002C30.6892 13.0033 30.2894 14.2374 29.6273 15.3746L28.2476 17.742L3.37502 17.7444C1.16784 22.1644 0.0127056 27.0356 0 31.9768C0 40.4699 3.37142 48.6152 9.37258 54.6208C12.3441 57.5944 15.8717 59.9532 19.7541 61.5625C23.6366 63.1719 27.7977 64.0002 32 64.0002C40.4869 64.0002 48.6263 60.6263 54.6274 54.6208C60.6286 48.6152 64 40.4699 64 31.9768C63.9863 25.1438 61.789 18.4942 57.7291 13.0002H32.0022L31.9977 13.0002Z" fill="#363949"/>
<path d="M29.8433 15.5005L29.8433 15.5004C29.956 15.3069 30.0631 15.1072 30.1657 14.9158C30.2155 14.8228 30.2643 14.7318 30.3122 14.6444C30.462 14.371 30.6075 14.124 30.7684 13.9143C31.083 13.5045 31.4439 13.2515 31.9983 13.2502L32.0006 13.2502H32.0022H57.6027C61.5832 18.6816 63.7365 25.2396 63.75 31.9773C63.7499 40.404 60.4048 48.4855 54.4506 54.444C48.4963 60.4027 40.4206 63.7502 32 63.7502C27.8306 63.7502 23.7019 62.9284 19.8499 61.3316C15.9978 59.7349 12.4977 57.3945 9.54942 54.444C3.5952 48.4855 0.250086 40.4039 0.25 31.9771C0.262522 27.1261 1.38484 22.343 3.53004 17.9943L28.2477 17.992L28.3913 17.992L28.4636 17.8679L29.8433 15.5005Z" stroke="#292B34" stroke-opacity="0.55" stroke-width="0.5"/>
<path opacity="0.25" d="M51.865 15.0002H37.135C36.5082 15.0002 36 15.4479 36 16.0002C36 16.5525 36.5082 17.0002 37.135 17.0002H51.865C52.4918 17.0002 53 16.5525 53 16.0002C53 15.4479 52.4918 15.0002 51.865 15.0002Z" fill="black"/>
<path opacity="0.15" d="M64 32.0002L32 64.0002C40.4869 64.0002 48.6263 60.6288 54.6274 54.6276C60.6286 48.6264 64 40.4871 64 32.0002Z" fill="url(#paint1_linear)"/>
</g>
<defs>
<linearGradient id="paint0_linear" x1="31.9802" y1="9.20045" x2="31.9802" y2="4.40045" gradientUnits="userSpaceOnUse">
<stop/>
<stop offset="1" stop-opacity="0"/>
</linearGradient>
<linearGradient id="paint1_linear" x1="29.6296" y1="46.2224" x2="61.6296" y2="46.2224" gradientUnits="userSpaceOnUse">
<stop/>
<stop offset="1" stop-opacity="0"/>
</linearGradient>
<clipPath id="clip0">
<rect width="64" height="64" fill="white"/>
</clipPath>
</defs>
</svg>
