<svg width="24" height="24" viewBox="0 0 24 24" fill="none" xmlns="http://www.w3.org/2000/svg">
<path d="M13.9902 3.00003C13.6005 3.00293 13.2308 3.23453 13.0723 3.61722L13.0684 3.62503C11.2641 3.37126 9.46863 4.48155 8.76953 6.16409C8.76953 6.16409 6.85723 10.7842 5.08594 10.7227C5.06694 10.7267 5.05155 10.7415 5.03125 10.7461C4.95415 10.7676 4.88238 10.8023 4.8164 10.8477C4.7894 10.8657 4.76198 10.876 4.73828 10.8965C4.64848 10.9708 4.57761 11.0669 4.53125 11.1739C4.37206 11.5582 4.5541 11.9936 4.9375 12.1524L14.6367 16.1719C15.0211 16.3311 15.458 16.15 15.6172 15.7657C15.66 15.3539 15.677 15.5399 15.3636 15.4239C15.664 15.3926 15.6523 15.3645 15.6465 15.334C15.6317 15.2551 15.6042 15.1792 15.5645 15.1094C15.5543 15.0922 15.5545 15.0714 15.543 15.0547C14.2466 13.8467 16.1621 9.22659 16.1621 9.22659C16.8579 7.54159 16.3725 5.48645 14.916 4.39065L14.9199 4.38284C15.1313 3.8726 14.8891 3.28755 14.3789 3.0762C14.2513 3.02336 14.1201 2.99906 13.9902 3.00003ZM6.89648 14.0508C6.78323 14.8786 7.19229 15.7204 7.98242 16.1114C8.85663 16.5432 9.89189 16.2757 10.459 15.5254L6.89648 14.0508Z" fill="white"/>
</svg>
