<svg width="24" height="24" viewBox="0 0 24 24" fill="none" xmlns="http://www.w3.org/2000/svg">
<path d="M12.8613 3.00989C12.4754 3.06363 12.1385 3.34026 12.0313 3.74036L12.0293 3.75013C10.2074 3.73403 8.57116 5.06885 8.09766 6.82825C8.09766 6.82825 6.80519 11.6581 5.04102 11.8283C5.02272 11.8348 5.00984 11.8523 4.99024 11.8595C4.91664 11.8909 4.84856 11.9348 4.78907 11.9884C4.76467 12.0098 4.73956 12.0236 4.71876 12.047C4.63936 12.1323 4.58085 12.2357 4.54884 12.3478C4.44117 12.7496 4.67922 13.1583 5.08009 13.2658L15.2207 15.9845C15.6225 16.0922 16.033 15.8551 16.1406 15.4533C16.1688 15.3401 16.1691 15.2231 16.1426 15.1095C16.1366 15.0788 16.123 15.0511 16.1133 15.0216C16.0883 14.9453 16.0505 14.8747 16.002 14.8107C15.9897 14.7949 15.9882 14.773 15.9746 14.7579C14.5316 13.7294 15.8262 8.89856 15.8262 8.89856C16.2961 7.13716 15.548 5.16402 13.9609 4.2677L13.9629 4.25794C14.1058 3.72447 13.7893 3.17627 13.2559 3.03333C13.1225 2.99759 12.99 2.99198 12.8613 3.00989ZM8.86524 15.3185C8.87564 16.2775 9.56586 17.0939 10.5098 17.2638C11.3309 17.4109 12.1571 17.0324 12.582 16.3146L8.86524 15.3185Z" fill="white"/>
</svg>
