<svg width="24" height="24" viewBox="0 0 24 24" fill="none" xmlns="http://www.w3.org/2000/svg">
<path d="M14.1231 3.00759C13.7363 2.9596 13.3399 3.14106 13.1328 3.49978L13.127 3.50759C11.3713 3.0205 9.44789 3.88577 8.53516 5.46267C8.53516 5.46267 6.03523 9.79393 4.28712 9.50173C4.26772 9.50323 4.25118 9.51742 4.23048 9.51931C4.15118 9.53058 4.07329 9.55327 4.00196 9.58962C3.97286 9.604 3.94408 9.61338 3.91798 9.63063C3.81918 9.69251 3.73766 9.77673 3.67774 9.87673C3.46974 10.237 3.59176 10.6927 3.95118 10.9002L13.0449 16.1502C13.4052 16.3582 13.8623 16.237 14.0703 15.8767C14.1269 15.7748 14.1579 15.6612 14.1621 15.5447C14.1641 15.5134 14.1563 15.4839 14.1543 15.4529C14.1503 15.3727 14.1338 15.2929 14.1035 15.2185C14.0955 15.2001 14.099 15.1799 14.0899 15.1619C12.9622 13.7949 15.4629 9.46267 15.4629 9.46267C16.3727 7.8829 16.1604 5.78413 14.8594 4.50759L14.8652 4.49978C15.1414 4.02148 14.9763 3.40873 14.4981 3.13259C14.3785 3.06355 14.252 3.02358 14.1231 3.00759ZM5.92969 13.2049C5.70323 14.0468 6.04865 14.9384 6.78321 15.408C7.57453 15.9113 8.6094 15.7968 9.27149 15.1326L5.92969 13.2049Z" fill="white"/>
</svg>
