<svg width="24" height="24" viewBox="0 0 24 24" fill="none" xmlns="http://www.w3.org/2000/svg">
<path d="M11.0693 3.74219C9.8519 4.07354 8.79584 4.97141 8.29785 6.16992C8.29785 6.16992 6.38359 10.79 4.6123 10.7285C4.5933 10.7325 4.57987 10.7474 4.55957 10.752C4.48247 10.7735 4.40874 10.8082 4.34277 10.8535C4.31577 10.8716 4.28825 10.8818 4.26465 10.9023C4.17475 10.9766 4.10396 11.0708 4.05761 11.1777C3.89842 11.5621 4.08046 11.9994 4.46386 12.1582L14.165 16.1758C14.5494 16.335 14.9844 16.1558 15.1436 15.7715C15.1865 15.6631 15.2034 15.5457 15.1924 15.4297C15.1904 15.3985 15.1787 15.3704 15.1729 15.3398C15.158 15.2609 15.1305 15.185 15.0908 15.1152C15.0806 15.098 15.0828 15.0772 15.0713 15.0605C14.299 14.3408 14.6679 12.418 15.0908 10.9746C13.8456 10.8662 12.6862 10.2954 11.841 9.37462C10.9958 8.45384 10.5261 7.24989 10.5244 6C10.5263 5.21506 10.713 4.44158 11.0693 3.74219ZM9.93066 15.5039C10.0042 16.442 10.7326 17.2253 11.7021 17.332C12.2718 17.3944 12.8095 17.2078 13.2139 16.8633L9.93066 15.5039Z" fill="white"/>
<path d="M19.5244 6C19.5244 7.06087 19.103 8.07828 18.3528 8.82843C17.6027 9.57857 16.5853 10 15.5244 10C14.4635 10 13.4461 9.57857 12.696 8.82843C11.9458 8.07828 11.5244 7.06087 11.5244 6C11.5244 4.93913 11.9458 3.92172 12.696 3.17157C13.4461 2.42143 14.4635 2 15.5244 2C16.5853 2 17.6027 2.42143 18.3528 3.17157C19.103 3.92172 19.5244 4.93913 19.5244 6V6Z" fill="#D33636"/>
</svg>
