<svg width="24" height="24" viewBox="0 0 24 24" fill="none" xmlns="http://www.w3.org/2000/svg">
<path d="M14.5166 3C14.1269 3.0029 13.7571 3.23646 13.5986 3.61915L13.5947 3.62696C11.7905 3.37319 9.99695 4.48348 9.29785 6.16602C9.29785 6.16602 7.38359 10.7861 5.6123 10.7246C5.5933 10.7286 5.57987 10.7435 5.55957 10.7481C5.48247 10.7696 5.40874 10.8043 5.34277 10.8496C5.31577 10.8677 5.28825 10.8779 5.26465 10.8984C5.17475 10.9727 5.10396 11.0669 5.05761 11.1738C4.89842 11.5582 5.08046 11.9955 5.46386 12.1543L15.165 16.1719C15.5494 16.3311 15.9844 16.1519 16.1436 15.7676C16.1865 15.6592 16.2034 15.5418 16.1924 15.4258C16.1904 15.3946 16.1786 15.3665 16.1729 15.3359C16.1581 15.257 16.1305 15.1811 16.0908 15.1113C16.0806 15.0941 16.0828 15.0733 16.0713 15.0566C14.8908 13.9566 16.3145 10.1862 16.5889 9.49219C16.1242 9.50075 15.6624 9.41667 15.2306 9.24486C14.7987 9.07305 14.4054 8.81695 14.0736 8.4915C13.7418 8.16606 13.4781 7.77778 13.298 7.34934C13.1179 6.9209 13.0249 6.46087 13.0244 5.9961C13.0249 5.40306 13.1761 4.81986 13.4637 4.30126C13.7514 3.78265 14.1661 3.34565 14.6689 3.03125C14.6177 3.02362 14.5676 2.99963 14.5166 3ZM10.1396 15.1738C10.1144 16.1358 10.7809 17.002 11.7568 17.1875C12.45 17.3188 13.123 17.0719 13.5752 16.5957L10.1396 15.1738Z" fill="white"/>
<path d="M19.0244 5.9961C19.0244 6.65914 18.761 7.29502 18.2922 7.76386C17.8233 8.23271 17.1875 8.4961 16.5244 8.4961C15.8614 8.4961 15.2255 8.23271 14.7566 7.76386C14.2878 7.29502 14.0244 6.65914 14.0244 5.9961C14.0244 5.33306 14.2878 4.69717 14.7566 4.22833C15.2255 3.75949 15.8614 3.4961 16.5244 3.4961C17.1875 3.4961 17.8233 3.75949 18.2922 4.22833C18.761 4.69717 19.0244 5.33306 19.0244 5.9961V5.9961Z" fill="#D33636"/>
</svg>
