<svg width="24" height="24" viewBox="0 0 24 24" fill="none" xmlns="http://www.w3.org/2000/svg">
<path opacity="0.4" d="M6.35199 3L5.41199 3.942L18.955 17.485L19.895 16.543L17.977 14.625C17.984 14.585 18 14.547 18 14.505C17.9983 14.3881 17.9688 14.2733 17.914 14.17C17.9 14.142 17.879 14.12 17.862 14.094C17.8178 14.0267 17.7627 13.9672 17.699 13.918C17.684 13.906 17.677 13.886 17.66 13.875C16 13.255 16 8.255 16 8.255C15.998 6.432 14.765 4.72 13 4.264V4.254C13 3.98878 12.8946 3.73443 12.7071 3.54689C12.5196 3.35936 12.2652 3.254 12 3.254C11.7348 3.254 11.4804 3.35936 11.2929 3.54689C11.1054 3.73443 11 3.98878 11 4.254V4.264C10.178 4.476 9.48 4.967 8.961 5.61L6.35199 3ZM8.03198 7.873C8.01898 8 8 8.126 8 8.254C8 8.254 8.00003 13.254 6.34003 13.875C6.32403 13.886 6.31703 13.906 6.30103 13.918C6.23767 13.9673 6.18287 14.0268 6.13898 14.094C6.12098 14.121 6.1 14.142 6.086 14.17C6.03135 14.273 6.00188 14.3874 6 14.504C6 14.92 6.335 15.254 6.75 15.254H15.412L8.03198 7.873ZM10.067 16.254C10.1777 16.6827 10.4275 17.0626 10.7773 17.3341C11.1272 17.6055 11.5572 17.7532 12 17.754C12.4433 17.7539 12.874 17.6065 13.2244 17.335C13.5749 17.0635 13.8251 16.6832 13.936 16.254H10.067Z" fill="white"/>
</svg>
