<svg width="24" height="24" viewBox="0 0 24 24" fill="none" xmlns="http://www.w3.org/2000/svg">
<path d="M15.5166 3.00003C15.1269 3.00293 14.7571 3.23648 14.5986 3.61917L14.5947 3.62698C12.7905 3.37322 10.9969 4.4835 10.2978 6.16604C10.2978 6.16604 8.38359 10.7862 6.6123 10.7246C6.5933 10.7286 6.57987 10.7435 6.55957 10.7481C6.48247 10.7696 6.40874 10.8043 6.34277 10.8496C6.31577 10.8677 6.28826 10.878 6.26465 10.8985C6.17475 10.9727 6.10396 11.0669 6.05761 11.1739C5.89842 11.5582 6.08046 11.9955 6.46386 12.1543L16.165 16.1719C16.5494 16.3311 16.9844 16.1519 17.1436 15.7676C17.1865 15.6592 17.2034 15.5419 17.1924 15.4258C17.1904 15.3946 17.1787 15.3665 17.1729 15.336C17.1581 15.2571 17.1305 15.1811 17.0908 15.1114C17.0806 15.0941 17.0828 15.0733 17.0713 15.0567C15.7749 13.8486 17.6885 9.22659 17.6885 9.22659C17.8593 8.81279 17.9557 8.37808 17.9873 7.93948C17.6937 8.00933 17.3881 8.01183 17.0934 7.94678C16.7986 7.88173 16.5225 7.75082 16.2855 7.56387C16.0486 7.37691 15.857 7.13876 15.7252 6.86725C15.5934 6.59575 15.5248 6.29793 15.5244 5.99612C15.5245 5.65708 15.6107 5.32361 15.7751 5.02706C15.9394 4.7305 16.1764 4.48059 16.4639 4.30081C16.6193 3.81119 16.3886 3.27837 15.9053 3.07815C15.7777 3.02531 15.6465 2.99906 15.5166 3.00003ZM10.1494 14.752C10.0383 15.6994 10.614 16.6177 11.5596 16.8985C12.3657 17.1373 13.2025 16.842 13.6943 16.2207L10.1494 14.752Z" fill="white"/>
<path d="M18.5244 5.99612C18.5244 6.26134 18.4191 6.51569 18.2315 6.70323C18.044 6.89076 17.7896 6.99612 17.5244 6.99612C17.2592 6.99612 17.0048 6.89076 16.8173 6.70323C16.6298 6.51569 16.5244 6.26134 16.5244 5.99612C16.5244 5.7309 16.6298 5.47655 16.8173 5.28901C17.0048 5.10148 17.2592 4.99612 17.5244 4.99612C17.7896 4.99612 18.044 5.10148 18.2315 5.28901C18.4191 5.47655 18.5244 5.7309 18.5244 5.99612Z" fill="#D33636"/>
</svg>
