<svg width="24" height="24" viewBox="0 0 24 24" fill="none" xmlns="http://www.w3.org/2000/svg">
<path d="M12.6309 3.00866C12.0833 2.93657 11.5819 3.32243 11.5098 3.86999L11.5078 3.87975C9.69937 4.10161 8.25347 5.63806 8.01367 7.44421C8.01367 7.44421 7.36163 12.4026 5.63477 12.8016C5.61747 12.8104 5.60629 12.8291 5.58789 12.8387C5.51899 12.8795 5.45824 12.9302 5.40625 12.9911C5.38485 13.0155 5.36135 13.0335 5.34375 13.0594C5.27615 13.1544 5.23195 13.2644 5.21485 13.3798C5.16055 13.7922 5.44793 14.1674 5.85938 14.2216L16.2695 15.5926C16.682 15.6469 17.057 15.3586 17.1113 14.9462C17.1245 14.8303 17.111 14.7136 17.0703 14.6044C17.0601 14.5748 17.0427 14.5503 17.0293 14.5223C16.9945 14.4499 16.9471 14.3842 16.8906 14.327C16.8763 14.313 16.8728 14.2913 16.8574 14.2782C15.2926 13.4468 15.9453 8.48913 15.9453 8.48913C16.1813 6.68146 15.1827 4.82296 13.4922 4.14147V4.13171C13.5643 3.58415 13.1784 3.08075 12.6309 3.00866ZM10.3613 15.8036C10.516 16.7724 11.351 17.4857 12.332 17.4872C13.1196 17.4861 13.8331 17.0227 14.1543 16.3036L10.3613 15.8036Z" fill="white"/>
</svg>
