<svg width="24" height="24" viewBox="0 0 24 24" fill="none" xmlns="http://www.w3.org/2000/svg">
<path d="M13.8789 3.00867C13.6252 3.04207 13.3849 3.1724 13.2168 3.39148L13.2109 3.3993C11.5339 2.68721 9.51114 3.29487 8.40039 4.73914C8.40039 4.73914 5.35712 8.70623 3.66211 8.18836C3.64271 8.18736 3.62627 8.19891 3.60547 8.19812C3.52547 8.19896 3.44461 8.21242 3.36914 8.23914C3.33844 8.2496 3.30935 8.25279 3.28125 8.26648C3.17525 8.31494 3.08222 8.38805 3.00976 8.47937C2.75651 8.80941 2.8192 9.27947 3.14844 9.53211L11.4785 15.9227C11.8086 16.176 12.276 16.1141 12.5293 15.7841C12.5987 15.6904 12.6466 15.5826 12.3636 15.4677C12.672 15.4369 12.6679 15.4068 12.6699 15.3759C12.6759 15.2958 12.6688 15.2153 12.6484 15.1376C12.6434 15.1183 12.6496 15.0981 12.6426 15.079C11.703 13.5766 14.748 9.60828 14.748 9.60828C15.8562 8.16078 15.9202 6.05153 14.7969 4.61609L14.8027 4.60828C15.1389 4.17012 15.0553 3.5441 14.6172 3.20789L14.6191 3.20594C14.4001 3.03783 14.1326 2.97527 13.8789 3.00867ZM3.16992 10.8095C3.04336 11.3856 3.17792 11.9882 3.53711 12.4559C4.12746 13.2225 5.18214 13.4562 6.04101 13.0106L3.16992 10.8095Z" fill="white"/>
</svg>
