<svg width="24" height="24" viewBox="0 0 24 24" fill="none" xmlns="http://www.w3.org/2000/svg">
<path d="M13.4902 3.00003C13.1005 3.00293 12.7308 3.23453 12.5723 3.61722L12.5684 3.62503C10.7641 3.37126 8.96863 4.48155 8.26953 6.16409C8.26953 6.16409 6.35722 10.7842 4.58594 10.7227C4.56694 10.7267 4.55155 10.7415 4.53125 10.7461C4.45415 10.7676 4.38238 10.8023 4.3164 10.8477C4.2894 10.8657 4.26188 10.876 4.23828 10.8965C4.14848 10.9708 4.07761 11.0669 4.03125 11.1739C3.87206 11.5582 4.0541 11.9936 4.4375 12.1524L14.1367 16.1719C14.5211 16.3311 14.958 16.15 15.1172 15.7657C15.16 15.3539 15.177 15.5399 15.166 15.4239C15.164 15.3926 15.1523 15.3645 15.1465 15.334C15.1317 15.2551 15.1042 15.1792 15.0645 15.1094C15.0543 15.0922 15.0545 15.0714 15.043 15.0547C13.7466 13.8467 15.6621 9.22659 15.6621 9.22659C16.3579 7.54159 15.8725 5.48645 14.416 4.39065L14.4199 4.38284C14.6313 3.8726 14.3891 3.28755 13.8789 3.0762C13.7513 3.02336 13.6201 2.99906 13.4902 3.00003ZM7.11914 14.3457C6.99075 15.2479 7.48878 16.1226 8.33008 16.4727C9.17295 16.8205 10.1443 16.5537 10.6914 15.8242L7.11914 14.3457Z" fill="white"/>
</svg>
