<svg width="24" height="24" viewBox="0 0 24 24" fill="none" xmlns="http://www.w3.org/2000/svg">
<path d="M6.35156 3L5.70117 3.65039L5.41211 3.94141L17.6016 16.1309L18.541 15.1895L17.9766 14.627C17.9826 14.5885 18 14.5539 18 14.5137C17.9981 14.3971 17.9687 14.2827 17.9141 14.1797C17.9001 14.1517 17.8783 14.1295 17.8613 14.1035C17.8174 14.0364 17.7626 13.977 17.6992 13.9277C17.6832 13.9157 17.6772 13.8958 17.6602 13.8848C16.0001 13.2648 16 8.26367 16 8.26367C15.998 6.44067 14.765 4.72844 13 4.27344V4.26367C13 3.71139 12.5523 3.26367 12 3.26367C11.4477 3.26367 11 3.71139 11 4.26367V4.27344C10.1807 4.48523 9.48376 4.97371 8.96484 5.61328L6.35156 3ZM8.0332 7.86328C8.01983 7.99654 8.00015 8.12874 8 8.26367C8 8.26367 7.99984 13.2638 6.33984 13.8848C6.32384 13.8958 6.31778 13.9157 6.30078 13.9277C6.2374 13.977 6.18262 14.0364 6.13867 14.1035C6.12067 14.1305 6.09994 14.1517 6.08594 14.1797C6.03132 14.2827 6.00187 14.3971 6 14.5137C6 14.6273 6.335 15.2637 6.75 15.2637H15.4336C15.4336 15.2637 10.5 10.3301 8.0332 7.86328ZM10.0664 16.2637C10.2941 17.1457 11.0891 17.7624 12 17.7637C12.9116 17.7632 13.7076 17.1464 13.9355 16.2637H10.0664Z" fill="white"/>
</svg>
