<svg width="24" height="24" viewBox="0 0 24 24" fill="none" xmlns="http://www.w3.org/2000/svg">
<path d="M6.35352 3L5.41211 3.94141L6.76172 5.29102L7.70312 4.34961L6.35352 3ZM12 3.26367C11.7348 3.26367 11.4804 3.36903 11.2929 3.55657C11.1054 3.7441 11 3.99846 11 4.26367V4.27344C9.236 4.72944 8.002 6.44167 8 8.26367C8 8.26367 7.99984 13.2638 6.33984 13.8848C6.32384 13.8958 6.31778 13.9157 6.30078 13.9277C6.2374 13.977 6.18262 14.0364 6.13867 14.1035C6.12067 14.1305 6.09994 14.1517 6.08594 14.1797C6.03132 14.2827 6.00187 14.3971 6 14.5137C6 14.6273 6.335 15.2637 6.75 15.2637H17.25C17.3636 15.2637 18 14.6273 18 14.5137C17.9981 14.3971 17.9687 14.2827 17.9141 14.1797C17.9001 14.1517 17.8783 14.1295 17.8613 14.1035C17.8174 14.0364 17.7626 13.977 17.6992 13.9277C17.6832 13.9157 17.6772 13.8958 17.6602 13.8848C16.0002 13.2648 16 8.26367 16 8.26367C15.998 6.44067 14.765 4.72844 13 4.27344V4.26367C13 3.99846 12.8946 3.7441 12.7071 3.55657C12.5196 3.36903 12.2652 3.26367 12 3.26367ZM10.0664 16.2637C10.1771 16.6925 10.4271 17.0725 10.777 17.3439C11.127 17.6154 11.5571 17.763 12 17.7637C12.4432 17.7635 12.8738 17.616 13.2242 17.3445C13.5745 17.073 13.8247 16.6928 13.9355 16.2637H10.0664Z" fill="white"/>
</svg>
