<svg width="22" height="22" viewBox="0 0 22 22" fill="none" xmlns="http://www.w3.org/2000/svg">
<path d="M11 4C10.7348 4 10.4804 4.10536 10.2929 4.29289C10.1054 4.48043 10 4.73478 10 5V5.01C8.236 5.466 7.002 7.178 7 9C7 9 7 14 5.34 14.621C5.324 14.632 5.317 14.652 5.3 14.664C5.237 14.7134 5.1826 14.7729 5.139 14.84C5.121 14.867 5.1 14.888 5.086 14.916C5.03136 15.019 5.00188 15.1334 5 15.25C5 15.666 5.335 16 5.75 16H16.25C16.666 16 17 15.666 17 15.25C16.9981 15.1334 16.9686 15.019 16.914 14.916C16.9 14.888 16.879 14.866 16.862 14.84C16.8181 14.7728 16.7634 14.7133 16.7 14.664C16.684 14.652 16.677 14.632 16.66 14.621C15 14.001 15 9 15 9C14.998 7.177 13.765 5.465 12 5.01V5C12 4.73478 11.8946 4.48043 11.7071 4.29289C11.5196 4.10536 11.2652 4 11 4V4ZM9.067 17C9.1777 17.4287 9.42754 17.8086 9.77737 18.0801C10.1272 18.3515 10.5572 18.4992 11 18.5C11.4433 18.4999 11.874 18.3525 12.2244 18.081C12.5749 17.8095 12.8252 17.4292 12.936 17H9.067Z" fill="white"/>
<path d="M3 3.70703L18.293 19L19 18.293L3.70703 3L3 3.70703Z" fill="#DA4453"/>
</svg>
