<svg width="48" height="48" viewBox="0 0 48 48" fill="none" xmlns="http://www.w3.org/2000/svg">
<path opacity="0.2" d="M42 17H6C4.89543 17 4 17.8954 4 19V41C4 42.1046 4.89543 43 6 43H42C43.1046 43 44 42.1046 44 41V19C44 17.8954 43.1046 17 42 17Z" fill="black"/>
<path d="M4 34C4 35.108 4.892 36 6 36H42C43.108 36 44 35.108 44 34V12C44 10.892 43.108 10 42 10H22V8C22 6.892 21.108 6 20 6H6C4.892 6 4 6.892 4 8" fill="#363949"/>
<path opacity="0.2" d="M42 15H6C4.89543 15 4 15.8954 4 17V39C4 40.1046 4.89543 41 6 41H42C43.1046 41 44 40.1046 44 39V17C44 15.8954 43.1046 15 42 15Z" fill="black"/>
<path d="M40 13H8C6.89543 13 6 13.8954 6 15V27C6 28.1046 6.89543 29 8 29H40C41.1046 29 42 28.1046 42 27V15C42 13.8954 41.1046 13 40 13Z" fill="#7E82A0"/>
<path d="M42 16H6C4.89543 16 4 16.8954 4 18V40C4 41.1046 4.89543 42 6 42H42C43.1046 42 44 41.1046 44 40V18C44 16.8954 43.1046 16 42 16Z" fill="#363949"/>
<path opacity="0.1" d="M6 6C4.892 6 4 6.892 4 8V9C4 7.892 4.892 7 6 7H20C21.108 7 22 7.892 22 9V8C22 6.892 21.108 6 20 6H6ZM22 10V11H42C43.108 11 44 11.892 44 13V12C44 10.892 43.108 10 42 10H22Z" fill="white"/>
<path d="M27.0936 20.2125L26.382 20.0174C26.2904 19.9869 26.2001 19.9965 26.1124 20.0462C26.0243 20.0959 25.9649 20.1705 25.9344 20.27L21.6539 35.0849C21.6234 35.1844 21.633 35.2782 21.6827 35.3661C21.7324 35.4541 21.8069 35.5134 21.9065 35.5439L22.618 35.7391C22.7098 35.7699 22.7997 35.7602 22.8877 35.7105C22.9757 35.6605 23.035 35.5861 23.0655 35.4869L27.346 20.6717C27.3765 20.5722 27.3671 20.4784 27.3173 20.3904C27.2675 20.3023 27.1931 20.243 27.0936 20.2125Z" fill="#7E82A0"/>
<path d="M20.6789 23.1046C20.6789 23.0051 20.6406 22.9171 20.5641 22.8406L19.9902 22.2668C19.9138 22.1903 19.8257 22.152 19.7263 22.152C19.6269 22.152 19.5388 22.1903 19.4623 22.2668L14.1148 27.6143C14.0382 27.6908 14 27.7788 14 27.8783C14 27.9777 14.0383 28.0658 14.1148 28.1422L19.4623 33.4897C19.5388 33.5664 19.6267 33.6045 19.7263 33.6045C19.8259 33.6045 19.9138 33.5662 19.9902 33.4897L20.5641 32.9163C20.6405 32.8398 20.6789 32.7517 20.6789 32.6522C20.6789 32.5529 20.6405 32.4648 20.5641 32.3884L16.0542 27.8783L20.5641 23.3685C20.6407 23.2921 20.6789 23.204 20.6789 23.1046Z" fill="#7E82A0"/>
<path d="M34.8853 27.6142L29.5376 22.2667C29.4612 22.1902 29.3731 22.1518 29.2738 22.1518C29.1742 22.1518 29.0865 22.1902 29.0097 22.2667L28.4361 22.8404C28.3597 22.9169 28.3215 23.0048 28.3215 23.1044C28.3215 23.204 28.3597 23.2919 28.4361 23.3683L32.9461 27.8782L28.4361 32.3884C28.3597 32.4648 28.3215 32.5529 28.3215 32.6522C28.3215 32.7518 28.3597 32.8398 28.4361 32.9163L29.0097 33.4897C29.0865 33.5664 29.1743 33.6045 29.2738 33.6045C29.3731 33.6045 29.4612 33.5662 29.5376 33.4897L34.8853 28.1422C34.9618 28.0658 35 27.9776 35 27.8782C35 27.7787 34.9618 27.6907 34.8853 27.6142Z" fill="#7E82A0"/>
</svg>
